<?xml version="1.0" encoding="iso-8859-1"?>
<!-- Generator: Adobe Illustrator 19.0.0, SVG Export Plug-In . SVG Version: 6.00 Build 0)  -->
<svg xmlns="http://www.w3.org/2000/svg" xmlns:xlink="http://www.w3.org/1999/xlink" version="1.1" id="Layer_1" x="0px" y="0px" viewBox="0 0 512 512" style="enable-background:new 0 0 512 512;" xml:space="preserve">
<polygon style="fill:#4FC2F8;" points="147.46,182.321 85.746,126.047 504.518,55.586 295.132,167.994 "/>
<polygon style="fill:#029AE6;" points="191.541,350.931 147.46,182.321 504.518,55.586 308.356,248.442 "/>
<polygon style="fill:#0289CC;" points="216.887,240.728 191.541,350.931 271.989,295.829 267.581,240.728 "/>
<polygon style="fill:#4FC2F8;" points="216.887,240.728 310.56,334.4 504.518,55.586 "/>
<path d="M173.941,374.458c-0.043,0.046-4.385,4.669-12.168,11.609c-3.093,2.757-3.364,7.499-0.606,10.591  c2.673,2.999,7.511,3.353,10.591,0.607c8.285-7.388,12.944-12.35,13.139-12.557c2.83-3.025,2.673-7.772-0.352-10.603  C181.516,371.275,176.77,371.435,173.941,374.458z"/>
<path d="M56.483,459.985c0.548,0,1.104-0.061,1.661-0.187c10.322-2.333,20.902-5.698,31.448-9.999  c3.836-1.564,5.678-5.942,4.114-9.779s-5.942-5.677-9.779-4.113c-9.785,3.991-19.572,7.105-29.092,9.258  c-4.041,0.913-6.576,4.93-5.662,8.971C49.961,457.62,53.055,459.985,56.483,459.985z"/>
<path d="M137.592,405.524c-8.554,6.204-17.303,11.869-26.005,16.837c-3.599,2.054-4.85,6.636-2.795,10.234  c2.026,3.549,6.689,4.82,10.234,2.796c9.173-5.236,18.383-11.199,27.376-17.721c3.354-2.432,4.101-7.123,1.667-10.477  C145.637,403.838,140.947,403.091,137.592,405.524z"/>
<path d="M6.693,463.081c5.151,0.558,10.419,0.84,15.697,0.84c4.919,0,10.2-1.686,10.09-7.663c-0.076-4.143-3.504-7.431-7.638-7.361  c-5.56,0.103-11.12-0.144-16.531-0.73c-4.118-0.445-7.819,2.53-8.266,6.649C-0.402,458.933,2.575,462.635,6.693,463.081z"/>
<path d="M511.976,54.981c-0.129-1.644-0.791-3.274-1.939-4.471c-1.709-1.782-4.267-2.77-6.731-2.325  c-0.011,0.002-0.021,0.002-0.032,0.004l-418.773,70.46c-2.83,0.476-5.141,2.525-5.951,5.279c-0.81,2.752,0.021,5.728,2.142,7.661  l60.072,54.777l43.521,166.462c0.688,2.63,2.806,4.764,5.477,5.371c1.974,0.448,4,0.158,5.727-0.91  c0.096-0.06,0.199-0.104,0.293-0.169l75.308-51.581l34.167,34.166c1.413,1.413,3.324,2.197,5.305,2.197  c0.221,0,0.443-0.01,0.665-0.03c2.212-0.197,4.225-1.364,5.493-3.189L510.676,59.87c0.012-0.018,0.02-0.038,0.032-0.056  C511.678,58.385,512.109,56.676,511.976,54.981z M212.828,234.42c-1.61,1.036-2.818,2.744-3.251,4.626l-18.501,80.443  L156.46,187.084L446.053,84.298C446.053,84.298,212.832,234.418,212.828,234.42z M421.132,77.223l-271.943,96.523l-47.002-42.86  L421.132,77.223z M260.297,294.745l-57.136,39.134l14.476-62.942l3.526-15.328l38.281,38.28L260.297,294.745z M309.524,322.755  l-80.753-80.754L476.733,82.393L309.524,322.755z"/>
<g>
</g>
<g>
</g>
<g>
</g>
<g>
</g>
<g>
</g>
<g>
</g>
<g>
</g>
<g>
</g>
<g>
</g>
<g>
</g>
<g>
</g>
<g>
</g>
<g>
</g>
<g>
</g>
<g>
</g>
</svg>
